<svg width="100%" height="100%" viewBox="0 0 2953 2953" version="1.1" xmlns="http://www.w3.org/2000/svg" xmlns:xlink="http://www.w3.org/1999/xlink" xml:space="preserve" xmlns:serif="http://www.serif.com/" style="fill-rule:evenodd;clip-rule:evenodd;stroke-linejoin:round;stroke-miterlimit:2;">
    <g transform="matrix(4.16667,0,0,4.16667,167.515,198.224)">
        <path d="M99.777,446.086C93.078,458.117 87.746,476.219 87.746,487.625C87.746,490.273 87.746,493.641 88.402,498.313L4.676,354.32C1.996,349.648 0,342.945 0,336.906C0,330.859 1.996,323.508 4.676,318.828L44.871,248.5L0,223.07L146.016,220.367L217,348.281L171.473,322.164L99.777,446.086ZM164.09,40.227C176.805,18.102 197.586,6.047 223.016,6.047C250.496,6.047 271.934,18.789 287.328,44.875L310.105,83.047L231.054,219.711L103.14,145.359L164.09,40.227ZM173.441,561.945C135.269,561.945 103.796,530.468 103.796,492.297C103.796,481.578 108.499,463.477 115.198,452.102L136.608,413.93L295.366,413.93L295.366,561.946L173.441,561.946L173.441,561.945ZM300.727,36.18C290.691,18.789 277.293,6.703 261.215,0L425.961,0C440.699,0 452.074,6.047 458.801,17.445L499.653,87.093L543.844,60.952L472.828,188.233L327.523,186.186L372.394,160.756L300.727,36.18ZM554.59,415.273C574.66,415.273 591.422,409.914 605.477,399.218L522.407,543.866C515.708,555.241 503.677,561.944 489.618,561.944L411.223,561.944L411.223,613.514L336.219,488.28L411.223,363.014L411.223,415.272L554.59,415.272L554.59,415.273ZM618.848,294.711C624.891,305.43 628.254,316.805 628.254,328.867C628.254,352.984 612.832,378.437 591.422,390.469C581.36,395.86 567.277,399.219 553.25,399.219L509.008,399.219L430.008,262.555L557.926,189.547L618.848,294.711Z" fill="currentColor" />
    </g>
</svg>
