<svg viewBox="0 0 2953 2953" version="1.1" xmlns="http://www.w3.org/2000/svg" xmlns:xlink="http://www.w3.org/1999/xlink" xml:space="preserve" xmlns:serif="http://www.serif.com/" style="fill-rule:evenodd;clip-rule:evenodd;stroke-linejoin:round;stroke-miterlimit:2;">
    <path d="M766.545,1594.65L560.682,1594.65C505.265,1594.65 455.441,1628.42 434.906,1679.89C414.371,1731.36 427.269,1790.15 467.467,1828.3L1383.16,2697.27C1435.41,2746.85 1517.34,2746.85 1569.59,2697.27L2485.29,1828.3C2525.49,1790.15 2538.39,1731.36 2517.85,1679.89C2497.32,1628.42 2447.49,1594.65 2392.07,1594.65L2186.21,1594.65L2186.21,353.715C2186.21,278.927 2125.58,218.299 2050.79,218.299L901.961,218.299C827.173,218.299 766.545,278.927 766.545,353.715L766.545,1594.65ZM1122.23,1215.58L1099.14,1215.58C1052.88,1215.58 1015.32,1253.14 1015.32,1299.41C1015.32,1345.67 1052.88,1383.24 1099.14,1383.24L1146.19,1383.24L1161.58,1490.89C1173.65,1575.32 1159.67,1661.45 1121.52,1737.73C1121.5,1737.77 1121.48,1737.81 1121.46,1737.86L1107.93,1765.02C1092.83,1795.35 1097.47,1831.79 1119.69,1857.36C1141.91,1882.94 1177.34,1892.63 1209.48,1881.91L1381.49,1824.58C1415.87,1813.13 1453.06,1813.13 1487.44,1824.58L1560.67,1848.95C1644.97,1877.06 1737.14,1870.52 1816.66,1830.75C1816.66,1830.75 1891.1,1793.53 1891.1,1793.53C1932.48,1772.84 1949.28,1722.45 1928.59,1681.07C1907.9,1639.68 1857.5,1622.88 1816.12,1643.58L1741.68,1680.8C1701.92,1700.68 1655.84,1703.95 1613.66,1689.89L1540.41,1665.51C1471.65,1642.61 1397.27,1642.61 1328.5,1665.51L1321.53,1667.83C1334.98,1602.14 1337.14,1534.26 1327.55,1467.16L1315.55,1383.24L1518.29,1383.24C1564.56,1383.24 1602.12,1345.67 1602.12,1299.41C1602.12,1253.14 1564.56,1215.58 1518.29,1215.58L1291.6,1215.58L1271,1071.41C1268.62,1054.74 1266.4,1037.94 1268.21,1021.19C1268.22,1021.16 1268.22,1021.13 1268.22,1021.11C1281.88,893.981 1390.42,796.481 1518.27,796.481C1584.94,796.481 1648.95,822.99 1696.09,870.127C1728.81,902.841 1781.93,902.837 1814.64,870.119C1847.36,837.401 1847.35,784.279 1814.63,751.566C1736.06,673.003 1629.39,628.821 1518.27,628.821C1305.18,628.821 1124.29,791.322 1101.52,1003.19C1098.21,1033.74 1100.67,1064.55 1105.01,1095.04C1105.01,1095.06 1105.01,1095.08 1105.02,1095.1L1122.23,1215.58Z" fill="currentColor" />
</svg>
