<?xml version="1.0" encoding="UTF-8" standalone="no"?>
<!DOCTYPE svg PUBLIC "-//W3C//DTD SVG 1.1//EN" "http://www.w3.org/Graphics/SVG/1.1/DTD/svg11.dtd">
<svg width="100%" height="100%" viewBox="0 0 24 24" version="1.1" xmlns="http://www.w3.org/2000/svg" xmlns:xlink="http://www.w3.org/1999/xlink" xml:space="preserve" xmlns:serif="http://www.serif.com/" style="fill-rule:evenodd;clip-rule:evenodd;stroke-linejoin:round;stroke-miterlimit:2;">
    <g transform="matrix(1.33333,0,0,1.33333,-4,-4)">
        <path d="M4,5L20,5C20.549,5 21,5.451 21,6C21,6.549 20.549,7 20,7L4,7C3.451,7 3,6.549 3,6C3,5.451 3.451,5 4,5ZM4,11L20,11C20.549,11 21,11.451 21,12C21,12.549 20.549,13 20,13L4,13C3.451,13 3,12.549 3,12C3,11.451 3.451,11 4,11ZM4,17L20,17C20.549,17 21,17.451 21,18C21,18.549 20.549,19 20,19L4,19C3.451,19 3,18.549 3,18C3,17.451 3.451,17 4,17Z"/>
    </g>
</svg>
