<svg viewBox="0 0 2953 2953" version="1.1" xmlns="http://www.w3.org/2000/svg" xmlns:xlink="http://www.w3.org/1999/xlink" xml:space="preserve" xmlns:serif="http://www.serif.com/" >
    <g id="path2888" transform="matrix(6.56972,0,0,6.05029,-758.979,-2609.98)">
        <path fill="currentColor" d="M354.24,511.51C403.361,488.402 487.82,490.209 523.2,600.176C533.435,631.987 526.599,655.145 523.168,670.382C522.658,672.497 515.622,689.201 515.173,692.462C514.705,695.857 538.701,747.822 541.633,754.43C547.307,768.009 543.022,770.431 538.807,773.372L392.307,850.005C384.93,853.864 381.183,846.9 378.51,840.895L350.572,774.068C348.399,770.54 341.091,766.951 337.665,764.079C295.197,742.281 269.047,731.176 192.425,693.854L151.056,724.391C145.698,728.465 122.983,663.569 146.849,643.58L194.892,670.321L266.811,696.756L306.306,675.867L289.543,636.611C288.523,570.801 316.673,530.381 354.253,511.511L354.24,511.51ZM362.244,525.015C320.168,549.853 317.094,571.504 308.495,609.462C309.161,615.451 307.438,622.818 322.733,613.893L439.133,551.491C445.419,548.123 452.193,550.385 458.688,565.019L495.008,646.819C502.477,642.691 517.136,646.933 507.358,603.47C483.638,512.33 404.328,500.17 362.248,525.01L362.244,525.015Z"/>
    </g>
</svg>
