<?xml version="1.0" encoding="UTF-8" standalone="no"?>
<!DOCTYPE svg PUBLIC "-//W3C//DTD SVG 1.1//EN" "http://www.w3.org/Graphics/SVG/1.1/DTD/svg11.dtd">
<svg width="100%" height="100%" viewBox="0 0 317 357" version="1.1" xmlns="http://www.w3.org/2000/svg" xmlns:xlink="http://www.w3.org/1999/xlink" xml:space="preserve" xmlns:serif="http://www.serif.com/" style="fill-rule:evenodd;clip-rule:evenodd;stroke-linejoin:round;stroke-miterlimit:2;">
    <g transform="matrix(4.10428,0,0,4.10428,-1106.96,-1204.21)">
        <path d="M290.242,293.403L346.709,380.319L325.942,380.319L308.284,353.243L290.476,380.319L269.709,380.319L298.176,336.803L269.709,293.403L290.242,293.403ZM289.89,294.052C289.89,294.052 270.912,294.052 270.912,294.052L298.719,336.446C298.861,336.662 298.861,336.942 298.719,337.158L270.91,379.67L290.125,379.67L307.741,352.886C307.862,352.703 308.066,352.593 308.285,352.594C308.504,352.594 308.709,352.705 308.828,352.888L326.294,379.67L345.512,379.67L289.89,294.052Z" style="fill:rgb(1,0,0);"/>
    </g>
    <g transform="matrix(5.7927,0,0,4.90174,125.311,146.783)">
        <path d="M0,-29.945L32.924,-29.945L16.461,0L0,-29.945ZM0.848,-29.401L16.461,-0.999L32.076,-29.401L0.848,-29.401Z" style="fill:rgb(239,5,144);"/>
    </g>
</svg>
