<?xml version="1.0" encoding="UTF-8" standalone="no"?>
<!DOCTYPE svg PUBLIC "-//W3C//DTD SVG 1.1//EN" "http://www.w3.org/Graphics/SVG/1.1/DTD/svg11.dtd">
<svg width="100%" height="100%" viewBox="0 0 1122 369" version="1.1" xmlns="http://www.w3.org/2000/svg" xmlns:xlink="http://www.w3.org/1999/xlink" xml:space="preserve" xmlns:serif="http://www.serif.com/" style="fill-rule:evenodd;clip-rule:evenodd;stroke-linejoin:round;stroke-miterlimit:2;">
    <g transform="matrix(4.10428,0,0,4.10428,-1106.96,-1198.46)">
        <path d="M290.242,293.403L346.709,380.319L325.942,380.319L308.284,353.243L290.476,380.319L269.709,380.319L298.176,336.803L269.709,293.403L290.242,293.403Z"/>
        <g transform="matrix(1.35511,0,0,1.14668,302.093,327.74)">
            <path d="M0,-29.945L16.461,0L32.924,-29.945L0,-29.945Z" style="fill:rgb(236,0,140);fill-rule:nonzero;"/>
        </g>
        <g transform="matrix(1,0,0,1,-1.94918,0)">
            <rect x="355.692" y="293.403" width="18.083" height="86.917" style="fill-rule:nonzero;"/>
        </g>
        <g transform="matrix(1,0,0,1,-6.82214,0)">
            <path d="M389.176,380.319L389.176,293.403L403.059,293.403L449.726,354.886L442.259,356.636L442.259,293.403L460.342,293.403L460.342,380.319L446.342,380.319L400.492,318.369L407.259,316.619L407.259,380.319L389.176,380.319Z" style="fill-rule:nonzero;"/>
        </g>
        <g transform="matrix(1,0,0,1,-11.3195,1.13687e-13)">
            <path d="M517.042,381.719C510.82,381.719 505.045,380.592 499.717,378.336C494.39,376.08 489.742,372.93 485.776,368.886C481.809,364.842 478.717,360.097 476.501,354.653C474.284,349.208 473.176,343.258 473.176,336.803C473.176,330.347 474.265,324.378 476.442,318.894C478.62,313.411 481.692,308.667 485.659,304.661C489.626,300.655 494.273,297.544 499.601,295.328C504.928,293.111 510.742,292.003 517.042,292.003C523.342,292.003 529.001,293.053 534.017,295.153C539.034,297.253 543.292,300.053 546.792,303.553C550.292,307.053 552.781,310.942 554.259,315.219L538.276,322.919C536.798,318.719 534.212,315.239 530.517,312.478C526.823,309.717 522.331,308.336 517.042,308.336C511.909,308.336 507.398,309.542 503.509,311.953C499.62,314.364 496.606,317.689 494.467,321.928C492.328,326.167 491.259,331.125 491.259,336.803C491.259,342.48 492.328,347.458 494.467,351.736C496.606,356.014 499.62,359.358 503.509,361.769C507.398,364.18 511.909,365.386 517.042,365.386C522.331,365.386 526.823,364.005 530.517,361.244C534.212,358.483 536.798,355.003 538.276,350.803L554.259,358.503C552.781,362.78 550.292,366.669 546.792,370.169C543.292,373.669 539.034,376.469 534.017,378.569C529.001,380.669 523.342,381.719 517.042,381.719Z" style="fill-rule:nonzero;"/>
        </g>
    </g>
</svg>
