<svg viewBox="0 0 2953 2953" version="1.1" xmlns="http://www.w3.org/2000/svg" xmlns:xlink="http://www.w3.org/1999/xlink" xml:space="preserve" xmlns:serif="http://www.serif.com/" style="fill-rule:evenodd;clip-rule:evenodd;stroke-linejoin:round;stroke-miterlimit:2;">
    <g id="ant-shape" transform="matrix(22.4219,0,0,22.4219,32.6307,169.585)">
        <path fill="currentColor" d="M17.177,23.931C16.151,24.772 24.403,35.216 24.912,35.824C31.962,44.26 38.941,44.55 39.804,45.809C40.674,47.06 44.832,51.246 52.228,52.477C52.256,54.4 52.362,56.217 52.56,57.943C48.014,56.691 42.894,55.616 40.03,55.623C37.011,55.616 26.786,58.473 24.955,59.329C24.311,59.633 12.63,59.336 12.63,60.608C12.63,61.895 24.262,62.369 24.743,61.719C28.964,62.39 40.921,60.205 42.194,60.432C43.467,60.672 53.26,63.522 53.331,63.536C54.066,66.916 55.134,68.761 56.4,71.017C51.535,70.876 42.802,75.691 37.93,80.563C33.886,84.608 27.147,91.148 26.129,92.591C22.324,97.965 24.028,114.77 26.136,114.77C27.79,114.77 23.83,99.726 27.635,94.352C28.731,92.803 40.985,84.438 42.413,82.797C43.842,81.157 51.436,78.809 54.618,76.433C51.415,78.505 49.223,81.744 49.223,86.199C49.223,102.74 57.856,109.41 64.341,109.49C64.341,109.49 64.348,109.51 64.362,109.51L64.489,109.51C70.966,109.43 79.558,102.74 79.558,86.227C79.565,82.076 77.648,78.958 74.806,76.879C78.264,79.092 85.045,81.263 86.388,82.805C87.824,84.438 100.02,92.803 101.12,94.359C104.94,99.726 100.98,114.79 102.65,114.79C104.74,114.79 106.46,97.979 102.65,92.605C101.63,91.17 94.895,84.636 90.85,80.591C85.971,75.712 77.252,70.897 72.38,71.045C73.646,68.79 74.707,66.895 75.449,63.508C75.513,63.5 85.306,60.693 86.586,60.46C87.866,60.227 99.816,62.419 104.04,61.74C104.52,62.397 116.16,61.917 116.15,60.637C116.16,59.357 104.44,59.633 103.8,59.329C101.97,58.466 91.798,55.616 88.771,55.616C85.907,55.623 80.746,56.698 76.199,57.936C76.397,56.224 76.545,54.407 76.574,52.484C83.97,51.239 88.135,47.06 88.99,45.809C89.86,44.557 96.839,44.267 103.89,35.817C104.39,35.216 112.65,24.765 111.62,23.931C110.41,22.948 102.84,32.692 102.54,33.547C100.49,34.566 90.744,41.057 89.57,41.524C88.389,41.983 82.45,44.105 76.135,47.888C75.166,44.189 72.727,41.679 69.743,40.35C73.865,40.343 76.864,39.537 76.864,34.997C76.864,30.033 75.909,25.458 74.304,21.788C78.695,19.504 81.877,17.058 82.831,16.711C83.786,16.351 84.154,15.035 82.344,11.712C79.36,6.253 76.128,1.523 75.428,1.784C74.728,2.06 77.995,12.695 80.795,14.986C77.479,15.573 75.301,16.648 72.536,18.564C70.358,15.269 67.558,13.289 64.468,13.239C64.461,13.232 64.454,13.211 64.447,13.218C64.418,13.218 64.383,13.211 64.355,13.211C61.258,13.253 58.401,15.262 56.23,18.564C53.458,16.655 51.295,15.552 47.985,14.958C50.785,12.681 54.073,2.053 53.373,1.791C52.673,1.53 49.421,6.225 46.437,11.684C44.619,15.014 45.015,16.358 45.97,16.704C46.932,17.058 50.114,19.504 54.505,21.788C52.893,25.451 51.938,30.04 51.938,35.004C51.938,39.53 54.936,40.35 59.051,40.35C56.075,41.686 53.635,44.196 52.666,47.881C46.352,44.097 40.384,42.004 39.21,41.538C38.029,41.078 28.292,34.537 26.242,33.519C25.945,32.671 18.393,22.941 17.177,23.931L17.177,23.931Z"/>
    </g>
</svg>
