<svg viewBox="0 0 2953 2953" version="1.1" xmlns="http://www.w3.org/2000/svg" xmlns:xlink="http://www.w3.org/1999/xlink" xml:space="preserve" xmlns:serif="http://www.serif.com/" style="fill-rule:evenodd;clip-rule:evenodd;stroke-linejoin:round;stroke-miterlimit:2;">
    <path id="rect4083" d="M1986.19,715.48C2154.24,444.902 2351.72,310.182 2526.07,211.006C2254.84,416.933 2072.06,648.754 1955.37,917.029C1974.14,898.817 1993,880.656 2011.94,861.994C2040.49,829.983 2070.37,798.876 2101.59,768.627L2101.63,768.577L2101.65,768.572L2101.59,768.627C2071.46,802.375 2041.58,832.801 2011.94,861.994C1988.63,888.136 1966.18,914.907 1944.61,942.311C1867.82,1126.84 1821.44,1328.51 1798.37,1550.63C1836.19,1526.38 1873.97,1505.32 1911.74,1486.53C2029.81,1168.48 2171.49,928.327 2314.86,693.715C2165.51,965.307 2058.92,1216.78 1983.23,1453.46C2026.04,1435.01 2068.89,1418.74 2111.84,1403.33C2171.26,1288.71 2230.93,1188.25 2284.13,1115.48L2237.44,1246.32C2284.58,1192.73 2455.88,1007.92 2455.88,1007.92L2449.2,1050.51C2449.2,1050.51 2585.64,957.328 2662.58,918.06L2662.6,918.049L2662.6,918.055L2662.58,918.06C2577.63,983.224 2501.44,1053.34 2433.08,1126.82L2480.45,1103.13C2430.43,1160.1 2300.98,1282.95 2259.51,1342.76L2306.89,1319.07C2269.28,1379.96 2136.56,1555.73 2104.07,1619.3C2094.86,1637.33 2085.96,1655.32 2077.36,1673.27C2211.44,1631.32 2354.4,1623.2 2500.6,1652.31C2314.28,1666.78 2148.4,1737.07 2005.6,1838.92C1999.1,1855.62 1992.84,1872.23 1986.85,1888.69C2069.12,1861.53 2155.16,1851.28 2242.29,1853.79C2415.55,1776.38 2612.62,1766.78 2863.49,1800.55C2704.54,1808.91 2567.61,1837.54 2449.52,1881.57C2544.87,1903.52 2639.07,1936.83 2728.61,1976.08C2597.28,1939.74 2480.39,1919.04 2376.38,1911.85C2114.6,2031.51 1954.68,2232.33 1853.19,2449.78C1831.91,2628.4 1838.56,2741.69 1838.56,2741.69L1467.98,2741.69L1467.98,2741.62L1420.24,2741.62L1420.21,2741.75L1239.19,2741.75L1239.16,2741.62L953.73,2741.62L953.728,2741.51L828.121,2741.51C806.921,2388.73 742.518,2037.62 600.905,1748.27C578.569,1718.63 555.744,1689.49 532.616,1660.62C428.209,1620.23 306.211,1588.07 163.267,1566.6L163.256,1566.53C242.529,1543.94 340.879,1539.75 445.932,1554.58C425.06,1529.36 404.12,1504.14 383.231,1478.77L383.136,1478.3C412.406,1505.64 441.289,1531.99 469.87,1558.27C477.469,1559.54 485.098,1560.91 492.757,1562.38C437.004,1481.55 372.951,1408.1 299.551,1343.87L333.531,1324.1C262.891,1254.15 181.999,1187.55 89.263,1124.02C204.889,1160 309.315,1213.98 404.598,1291.84L404.598,1244.46C484.659,1339.2 569.512,1461.1 651.593,1606.28C774.244,1650.77 895.258,1720.11 996.585,1815.19C908.497,1472.99 774.246,1184.33 620.89,925.712C498.572,868.752 362.402,829.442 211.802,810.847L210.929,810.821L210.918,810.738L211.802,810.847C335.402,814.562 461.079,829.881 585.127,866.478C475.9,688.699 358.338,524.741 241.737,366.583C384.116,544.066 522.33,685.574 661.488,891.871C733.21,918.515 804.099,953.046 873.384,997.362L873.363,997.337C839.979,958.767 805.589,921.073 770.258,884.279C758.613,872.153 746.869,860.123 735.027,848.189C731.236,844.368 727.435,840.557 723.624,836.756C721.987,835.123 720.349,833.493 718.709,831.864C718.161,831.32 716.477,829.736 717.066,830.234C719.839,832.577 722.532,835.013 725.264,837.402C732.101,843.383 738.937,849.365 745.767,855.354C763.589,870.979 781.377,886.644 799.078,902.406C834.948,934.347 870.463,966.695 905.214,999.852C931.225,1024.67 956.79,1049.95 981.81,1075.77L983.345,1077.36C1038.9,1122.99 1093.12,1175.97 1145.6,1237.4C1156.88,1241.3 1165.64,1242.47 1169.13,1238.29C1184.26,1220.16 1138.3,1118.99 1138.05,1114.18C1137.8,1109.36 1194.29,1068.54 1200.23,1105.3C1206.17,1142.05 1190.66,1213.29 1216.51,1238.29C1220.15,1241.81 1224.86,1243.51 1230.32,1243.86C1253.03,1171.24 1276.18,1104.57 1299.55,1043.05C1259.28,901.418 1217.78,769.252 1178.05,642.557L1177.17,640.415L1177.19,639.823L1178.05,642.557C1230.32,771.278 1276.66,865.819 1324.44,979.652C1453.59,661.28 1587.47,490.435 1692.48,337.055C1565.18,601.333 1461.18,861.601 1380.85,1123.18C1400.25,1176.22 1420.31,1235.29 1441.44,1303.52C1587.01,1009.14 1788.28,845.25 1986.19,715.48ZM733.144,1760.42C763.202,1821.16 792.501,1885.06 820.632,1951.89C882.746,2044.68 945.827,2156.19 1011.08,2296.42L1011.25,2295.17C1020.63,2225.98 1030.7,2156.88 1041.57,2087.9L1041.98,2085.3C975.209,1965.67 878.864,1852.54 733.144,1760.42ZM2115.15,1925.75C2056.22,1937.67 2003.35,1955.65 1955.96,1978.88C1942.03,2022.26 1929.72,2064.71 1918.84,2105.92C1982.91,2032.06 2047.63,1972.58 2115.15,1925.75ZM1646.11,1819.47C1627.77,1840.24 1609.97,1861.37 1592.78,1882.87C1600.9,1918.34 1609.2,1955.18 1617.68,1993.48C1621.11,1989.36 1624.56,1985.27 1628.02,1981.21C1633.43,1925.5 1639.47,1871.62 1646.11,1819.47ZM1261.88,1596.49C1254.04,1636.56 1246.75,1676.73 1240.01,1716.99C1246.25,1761.75 1253.77,1810.44 1262.83,1862.06C1264.34,1870.65 1265.78,1878.95 1267.15,1886.97C1277.66,1819.27 1290.07,1755.52 1304.18,1695.41C1290.9,1662.21 1276.8,1629.23 1261.88,1596.49ZM1870.41,1604.16C1842.13,1627.47 1814.62,1651.31 1787.94,1675.68L1787.93,1675.86C1784.65,1727.39 1782.54,1778.98 1781.35,1830.61L1781.31,1832.42C1790.14,1825.4 1799.06,1818.56 1808.06,1811.88C1827.74,1738.99 1848.58,1669.92 1870.41,1604.16ZM714.995,974.504C837.458,1171.64 961.155,1428.65 1089.58,1813.79C1108.59,1715.82 1128.4,1624.87 1148.84,1540.22C1146.87,1505.74 1145.57,1475.87 1144.86,1450.74C1142.81,1378.15 1000.99,1379.94 1000.55,1355.58C1000.13,1332.35 1125.28,1394.95 1146.75,1380.17C1139.04,1368.92 1131.2,1357.8 1123.24,1346.81C1084.15,1319.82 1015.38,1286.03 1013.42,1266.76C1012.11,1253.86 1042.02,1267.92 1075.92,1285.02L1075.29,1284.23C1056.72,1261.36 1037.49,1239.03 1017.53,1217.36C983.075,1179.94 946.513,1144.45 907.959,1111.25C870.535,1079.03 831.238,1048.99 790.28,1021.39C765.755,1004.87 740.632,989.253 715.001,974.507L714.995,974.504ZM2092.63,1440.9C2046.36,1471.39 2001.48,1502.82 1958.1,1535.31C1936.6,1608.32 1918,1679.95 1901.93,1750.31C1922.76,1738.35 1943.9,1727.3 1965.35,1717.13C2005.43,1621.75 2048.77,1527.84 2092.63,1440.9ZM1437.96,1620.55C1433.45,1644 1429.38,1667.99 1425.75,1692.53C1431.21,1704.6 1436.62,1716.84 1442.01,1729.25C1445.41,1718.93 1448.86,1708.67 1452.33,1698.53L1452.32,1698.51C1447.88,1673.52 1443.28,1648.55 1438.54,1623.61L1437.96,1620.55ZM1768.48,1216.45C1690.68,1366.79 1630.06,1535.29 1584.57,1726.91C1613.64,1696.87 1642.64,1669.67 1671.58,1644.92C1698.18,1484.23 1730.94,1342.24 1768.48,1216.45ZM1957.03,764.341C1729.37,978.269 1570.42,1175.78 1482.92,1444.62C1491.78,1476.28 1500.84,1509.62 1510.13,1544.84C1603.74,1317.58 1721.34,1124.77 1859.55,961.609C1890.33,889.198 1922.97,823.75 1957.03,764.341ZM1362.71,1279.18C1358.04,1282.05 1346.75,1286.16 1332.53,1291.32C1326.31,1314.57 1320.28,1337.84 1314.44,1361.09C1346.77,1348.32 1374.58,1335.36 1371.37,1348.98C1368.57,1360.89 1340.78,1371.56 1309.09,1382.64C1304.11,1402.89 1299.27,1423.15 1294.56,1443.48C1312.73,1472.99 1330.6,1503.82 1348.14,1536.04C1362.37,1491.65 1377.64,1449.56 1393.82,1409.66C1383.71,1365.2 1373.32,1321.74 1362.71,1279.18ZM1349.84,1228.39C1345.28,1244.53 1340.81,1260.68 1336.43,1276.84C1345.25,1275.09 1353.15,1274.25 1359.48,1274.83C1360.32,1274.91 1361.05,1275 1361.69,1275.11C1357.77,1259.41 1353.82,1243.84 1349.84,1228.39Z" fill="currentColor" />
</svg>
