<svg viewBox="0 0 2953 2953" version="1.1" xmlns="http://www.w3.org/2000/svg" xmlns:xlink="http://www.w3.org/1999/xlink" xml:space="preserve" xmlns:serif="http://www.serif.com/" style="fill-rule:evenodd;clip-rule:evenodd;stroke-linejoin:round;stroke-miterlimit:2;">
    <path d="M1530.8,1518.34C1509.35,1538.2 1487.14,1555.53 1464.8,1569.6C1297.92,1674.66 1186.68,1557.77 1080.8,1393.86C974.917,1229.94 914.491,1081.07 1081.38,976.007C1140.66,938.69 1220.64,911.92 1303.92,900.256C1227.75,854.288 1161.35,793.546 1121.35,731.624C1015.47,567.709 1134.64,457.587 1301.53,352.526C1468.41,247.465 1619.82,187.251 1725.7,351.167C1773.34,424.912 1803.64,531.457 1807.37,635.894C1855.64,551.069 1923.79,475.791 1993.24,432.068C2160.12,327.008 2271.36,443.893 2377.24,607.808C2483.12,771.724 2543.55,920.597 2376.66,1025.66C2316.88,1063.29 2236.05,1090.19 2152.06,1101.69C2215.94,1144.83 2270.81,1197.88 2305.66,1251.82C2411.53,1415.73 2292.37,1525.85 2125.48,1630.91C1958.59,1735.98 1807.18,1796.19 1701.3,1632.28C1675.31,1592.04 1654.48,1542.04 1640.31,1487.93C1607.18,1580.65 1578.53,1674.77 1554.9,1769.93C1554.9,1769.93 1554.9,1769.93 1554.9,1769.93C1516.35,1925.83 1490.23,2083.89 1490.71,2240.42C1490.82,2277.86 1492.41,2315 1496.05,2351.53C1683.05,1979.08 1991.05,1766.48 2440.9,1883.63C2389.22,2114.23 2257.25,2285.9 2080.5,2384.73C1919.98,2474.49 1722.52,2504.17 1514.75,2463.35C1525.81,2508.89 1540.92,2552.23 1562.12,2590.94C1511.61,2595.24 1459.64,2593.3 1407.16,2586.33C1392.73,2544.34 1382.83,2501.69 1376.34,2459.38C1364.76,2384.89 1362.32,2310.53 1365.49,2237.67C1365.49,2237.67 1365.49,2237.67 1365.49,2237.67C1365.59,2235.48 1365.68,2233.3 1365.79,2231.11C920.358,2219.89 578.523,2025.86 509.414,1553.06C744.642,1509.97 956.262,1562.86 1117.45,1684.89C1237.47,1775.75 1329.53,1904.95 1382.55,2061.41C1398.55,1953.05 1423.91,1846.79 1454.62,1743.15C1454.62,1743.15 1454.62,1743.15 1454.62,1743.15C1477.06,1667.16 1502.55,1592.18 1530.8,1518.34ZM1968.33,845.08C2063.35,992.185 2019.58,1187.48 1870.58,1281.28C1721.57,1375.09 1523.74,1331.88 1428.73,1184.78C1333.7,1037.67 1377.47,842.382 1526.48,748.578C1675.49,654.771 1873.31,697.98 1968.33,845.08Z" fill="currentColor" />
</svg>
