<?xml version="1.0" standalone="no"?>
<!DOCTYPE svg PUBLIC "-//W3C//DTD SVG 20010904//EN"
 "http://www.w3.org/TR/2001/REC-SVG-20010904/DTD/svg10.dtd">
<svg version="1.0" xmlns="http://www.w3.org/2000/svg"
 width="274.000000pt" height="274.000000pt" viewBox="0 0 274.000000 274.000000"
 preserveAspectRatio="xMidYMid meet">
<metadata>
Created by potrace 1.14, written by Peter Selinger 2001-2017
</metadata>
<g transform="translate(0.000000,274.000000) scale(0.100000,-0.100000)"
fill="#000000" stroke="none">
<path d="M1266 2621 c-3 -5 4 -51 16 -103 l21 -94 66 -2 c322 -7 590 -122 804
-345 138 -143 235 -321 278 -507 6 -25 13 -54 16 -65 3 -11 7 -85 9 -165 5
-197 -21 -324 -101 -497 -103 -224 -313 -431 -542 -535 -75 -34 -162 -62 -170
-55 -20 20 196 422 327 607 124 177 287 389 359 470 105 117 -14 22 -182 -146
-159 -158 -362 -404 -499 -604 l-17 -25 8 30 c9 33 38 107 69 176 11 24 32 73
47 109 15 36 43 98 61 138 19 41 34 75 34 78 0 2 16 38 35 80 20 42 34 79 32
81 -4 4 -21 -24 -75 -117 -64 -113 -203 -348 -216 -365 -12 -16 -11 -2 5 70
51 231 142 505 238 718 11 26 31 68 42 95 32 70 118 242 141 280 11 17 17 32
14 32 -7 0 -114 -159 -148 -220 -14 -25 -40 -69 -57 -99 -68 -115 -177 -345
-247 -524 -48 -122 -134 -384 -134 -407 0 -11 -4 -20 -9 -20 -5 0 -7 21 -6 48
2 26 6 92 9 147 4 55 9 120 11 145 3 25 7 79 11 120 3 41 7 91 9 110 10 107
17 176 20 190 1 8 6 53 10 100 4 47 9 88 12 93 2 4 0 7 -4 7 -5 0 -14 -21 -20
-47 -6 -27 -27 -118 -47 -203 -20 -85 -39 -168 -41 -185 -3 -16 -8 -37 -11
-46 -2 -9 -7 -33 -9 -54 -3 -20 -9 -44 -15 -54 -8 -13 -9 -12 -10 9 0 31 -37
227 -91 480 -22 107 -45 213 -49 235 -19 87 -161 653 -175 695 -14 41 -15 42
-11 10 3 -19 7 -46 10 -60 3 -14 12 -74 21 -135 9 -60 18 -121 20 -135 5 -26
6 -30 30 -230 15 -120 21 -174 30 -250 2 -19 6 -57 9 -85 12 -99 15 -132 30
-285 23 -224 25 -248 31 -320 3 -36 8 -78 10 -95 2 -16 7 -64 10 -105 l6 -75
-44 81 c-79 145 -169 297 -225 384 -67 102 -163 230 -174 230 -4 0 18 -41 49
-92 84 -138 166 -306 233 -474 61 -154 73 -198 43 -154 -127 186 -336 437
-555 665 -42 44 -88 93 -102 108 -45 49 -28 19 32 -56 165 -204 369 -543 557
-922 57 -116 109 -223 114 -238 l11 -29 -47 6 c-208 27 -436 147 -604 316
-160 161 -274 382 -304 590 -3 19 -8 45 -10 58 -6 27 -7 219 -2 247 3 11 8 43
12 70 10 72 51 199 91 284 100 213 295 411 512 520 31 16 42 27 38 39 -3 9
-10 54 -17 100 -7 46 -17 82 -24 82 -22 0 -162 -73 -243 -127 -105 -69 -264
-224 -337 -328 -106 -149 -179 -318 -221 -510 -19 -88 -28 -348 -14 -412 5
-21 11 -56 14 -78 3 -22 15 -74 26 -115 97 -342 335 -637 653 -805 136 -72
293 -124 432 -142 75 -9 302 -9 375 1 30 4 82 14 115 23 33 8 67 16 75 18 93
20 299 125 413 211 324 243 515 618 522 1024 7 368 -123 688 -385 950 -209
210 -431 322 -740 375 -60 11 -289 15 -294 6z"/>
</g>
</svg>
