<?xml version="1.0" encoding="UTF-8" standalone="no"?>
<!DOCTYPE svg PUBLIC "-//W3C//DTD SVG 1.1//EN" "http://www.w3.org/Graphics/SVG/1.1/DTD/svg11.dtd">
<svg width="100%" height="100%" viewBox="0 0 796 274" version="1.1" xmlns="http://www.w3.org/2000/svg" xmlns:xlink="http://www.w3.org/1999/xlink" xml:space="preserve" xmlns:serif="http://www.serif.com/" style="fill-rule:evenodd;clip-rule:evenodd;stroke-linejoin:round;stroke-miterlimit:2;">
    <g transform="matrix(1,0,0,1,-438.655,-458)">
        <g transform="matrix(0.381085,0,0,0.381085,161.757,295.658)">
            <g>
                <g transform="matrix(1,0,0,1,737,16)">
                    <path d="M288,951C288,951 259.561,853.375 191,751C191,751 236.991,786.848 332,978L365,1028L347,1063L305,1012L288,951Z" style="fill:rgb(136,174,56);"/>
                </g>
                <g transform="matrix(1,0,0,1,724.198,21)">
                    <path d="M355.604,875C355.604,875 381.378,739.249 400,676C400,676 369.751,933.947 379,972C388.249,1010.05 355.604,875 355.604,875Z" style="fill:rgb(136,174,56);"/>
                </g>
                <g transform="matrix(1,0,0,1,718.198,17)">
                    <path d="M405,1017L417,944C417,944 498.627,800.782 508,789C508,789 423.565,975.384 424,990C424.435,1004.62 416,1022 416,1022L405,1017Z" style="fill:rgb(136,174,56);"/>
                </g>
            </g>
            <path d="M990.408,458.478C984.493,437.501 981,426 981,426C984.064,433.305 987.215,444.389 990.408,458.478C1012.19,535.709 1066.79,741.349 1101,975C1101,975 1143.89,783.441 1267,618C1267,618 1142.94,823.063 1132,1020C1132,1020 1226.35,867.405 1344,776C1344,776 1189.77,950.988 1145.93,1081.23C1270.48,1048.36 1362.44,934.833 1362.44,800C1362.44,639.485 1232.12,509.167 1071.6,509.167C1065.81,509.167 1060.05,509.336 1054.35,509.671L1042.13,456.244C1051.86,455.42 1061.68,455 1071.6,455C1262.01,455 1416.6,609.589 1416.6,800C1416.6,990.411 1262.01,1145 1071.6,1145C881.193,1145 726.604,990.411 726.604,800C726.604,654.583 816.766,530.059 944.213,479.319L953.859,534.024C851.94,579.25 780.77,681.379 780.77,800C780.77,948.461 892.25,1071.09 1035.99,1088.67C1024.75,1063.02 921.923,832.238 814,727C814,727 976.683,880.648 1057,1021C1057,1021 1021.61,596.122 990.408,458.478Z" style="fill:url(#_Linear1);"/>
        </g>
        <g transform="matrix(0.892882,0,0,0.892882,74.9646,80.8622)">
            <g transform="matrix(2.6632,0,0,2.6632,-199.807,-2820.78)">
                <path d="M384.287,1253.56C386.268,1254.19 387.82,1255.24 388.942,1256.71C390.065,1258.18 390.626,1259.98 390.626,1262.13C390.626,1265.17 389.446,1267.5 387.085,1269.14C384.725,1270.77 381.283,1271.59 376.761,1271.59L358.835,1271.59L358.835,1236.92L375.77,1236.92C379.996,1236.92 383.239,1237.73 385.501,1239.35C387.762,1240.97 388.893,1243.16 388.893,1245.94C388.893,1247.62 388.488,1249.12 387.679,1250.44C386.871,1251.76 385.74,1252.8 384.287,1253.56ZM366.807,1242.97L366.807,1251.14L374.78,1251.14C376.761,1251.14 378.263,1250.79 379.286,1250.1C380.309,1249.4 380.821,1248.38 380.821,1247.03C380.821,1245.67 380.309,1244.66 379.286,1243.98C378.263,1243.31 376.761,1242.97 374.78,1242.97L366.807,1242.97ZM376.166,1265.55C378.279,1265.55 379.872,1265.2 380.945,1264.51C382.018,1263.81 382.554,1262.74 382.554,1261.29C382.554,1258.42 380.425,1256.98 376.166,1256.98L366.807,1256.98L366.807,1265.55L376.166,1265.55Z" style="fill:rgb(109,33,131);fill-rule:nonzero;"/>
                <path d="M423.061,1265.15L423.061,1271.59L396.221,1271.59L396.221,1236.92L422.417,1236.92L422.417,1243.36L404.194,1243.36L404.194,1250.89L420.288,1250.89L420.288,1257.13L404.194,1257.13L404.194,1265.15L423.061,1265.15Z" style="fill:rgb(109,33,131);fill-rule:nonzero;"/>
                <path d="M439.105,1243.46L428.013,1243.46L428.013,1236.92L458.219,1236.92L458.219,1243.46L447.127,1243.46L447.127,1271.59L439.105,1271.59L439.105,1243.46Z" style="fill:rgb(109,33,131);fill-rule:nonzero;"/>
                <path d="M474.659,1243.46L463.567,1243.46L463.567,1236.92L493.774,1236.92L493.774,1243.46L482.681,1243.46L482.681,1271.59L474.659,1271.59L474.659,1243.46Z" style="fill:rgb(109,33,131);fill-rule:nonzero;"/>
                <path d="M526.407,1265.15L526.407,1271.59L499.567,1271.59L499.567,1236.92L525.763,1236.92L525.763,1243.36L507.54,1243.36L507.54,1250.89L523.633,1250.89L523.633,1257.13L507.54,1257.13L507.54,1265.15L526.407,1265.15Z" style="fill:rgb(109,33,131);fill-rule:nonzero;"/>
                <path d="M553.89,1271.59L547.204,1261.93L539.826,1261.93L539.826,1271.59L531.804,1271.59L531.804,1236.92L546.808,1236.92C549.878,1236.92 552.544,1237.44 554.806,1238.46C557.067,1239.48 558.808,1240.94 560.03,1242.82C561.251,1244.7 561.862,1246.93 561.862,1249.5C561.862,1252.08 561.243,1254.3 560.005,1256.16C558.767,1258.03 557.009,1259.46 554.731,1260.45L562.506,1271.59L553.89,1271.59ZM553.741,1249.5C553.741,1247.56 553.114,1246.06 551.859,1245.02C550.605,1243.98 548.773,1243.46 546.363,1243.46L539.826,1243.46L539.826,1255.54L546.363,1255.54C548.773,1255.54 550.605,1255.02 551.859,1253.96C553.114,1252.9 553.741,1251.42 553.741,1249.5Z" style="fill:rgb(109,33,131);fill-rule:nonzero;"/>
            </g>
            <g transform="matrix(1.3839,0,0,3.26822,164.621,-2027.35)">
                <path d="M440.031,802.978L427.214,802.978L427.214,801.011L458.136,801.011L458.136,802.978L445.318,802.978L445.318,816.841L440.031,816.841L440.031,802.978Z" style="fill:rgb(33,131,62);fill-rule:nonzero;"/>
                <path d="M505.721,801.011L505.721,816.841L500.38,816.841L500.38,809.785L478.911,809.785L478.911,816.841L473.57,816.841L473.57,801.011L478.911,801.011L478.911,807.818L500.38,807.818L500.38,801.011L505.721,801.011Z" style="fill:rgb(33,131,62);fill-rule:nonzero;"/>
                <path d="M550.368,812.884L530.501,812.884L526.389,816.841L520.888,816.841L537.818,801.011L543.105,801.011L560.088,816.841L554.481,816.841L550.368,812.884ZM548.499,811.074L540.435,803.318L532.37,811.074L548.499,811.074Z" style="fill:rgb(33,131,62);fill-rule:nonzero;"/>
                <path d="M607.406,801.011L607.406,816.841L603.027,816.841L580.596,805.036L580.596,816.841L575.256,816.841L575.256,801.011L579.635,801.011L602.065,812.816L602.065,801.011L607.406,801.011Z" style="fill:rgb(33,131,62);fill-rule:nonzero;"/>
                <path d="M659.637,802.978L646.82,802.978L646.82,801.011L677.742,801.011L677.742,802.978L664.925,802.978L664.925,816.841L659.637,816.841L659.637,802.978Z" style="fill:rgb(33,131,62);fill-rule:nonzero;"/>
                <path d="M707.97,817.022C702.985,817.022 699.105,816.419 696.327,815.213C693.55,814.007 692.162,812.273 692.162,810.012L692.162,801.011L697.502,801.011L697.502,809.921C697.502,813.313 701.009,815.009 708.023,815.009C711.441,815.009 714.058,814.591 715.874,813.754C717.69,812.917 718.598,811.64 718.598,809.921L718.598,801.011L723.778,801.011L723.778,810.012C723.778,812.288 722.39,814.026 719.612,815.224C716.835,816.423 712.955,817.022 707.97,817.022Z" style="fill:rgb(33,131,62);fill-rule:nonzero;"/>
                <path d="M769.334,816.841L761.269,811.979C760.272,812.009 759.489,812.024 758.919,812.024L749.68,812.024L749.68,816.841L744.34,816.841L744.34,801.011L758.919,801.011C763.762,801.011 767.571,801.501 770.348,802.481C773.125,803.461 774.514,804.81 774.514,806.529C774.514,807.75 773.802,808.79 772.378,809.65C770.954,810.509 768.924,811.135 766.289,811.527L775.155,816.841L769.334,816.841ZM758.759,810.102C762.142,810.102 764.723,809.793 766.503,809.175C768.283,808.557 769.173,807.675 769.173,806.529C769.173,805.383 768.283,804.505 766.503,803.894C764.723,803.284 762.142,802.978 758.759,802.978L749.68,802.978L749.68,810.102L758.759,810.102Z" style="fill:rgb(33,131,62);fill-rule:nonzero;"/>
                <path d="M798.12,802.978L798.12,808.496L816.865,808.496L816.865,810.441L798.12,810.441L798.12,816.841L792.779,816.841L792.779,801.011L819.162,801.011L819.162,802.978L798.12,802.978Z" style="fill:rgb(33,131,62);fill-rule:nonzero;"/>
            </g>
            <g transform="matrix(1.17003,0,0,1.13822,-120.063,-108.96)">
                <path d="M773.411,682.461L773.411,706.804L771.686,706.804L771.686,695.224L755.853,695.224L755.853,706.804L754.127,706.804L754.127,682.461L755.853,682.461L755.853,693.659L771.686,693.659L771.686,682.461L773.411,682.461Z" style="fill:white;fill-rule:nonzero;"/>
                <path d="M804.874,698.423L804.874,706.804L803.149,706.804L803.149,698.423L793.608,682.461L795.503,682.461L804.062,696.789L812.621,682.461L814.414,682.461L804.874,698.423Z" style="fill:white;fill-rule:nonzero;"/>
                <path d="M834.037,682.461L843.408,682.461C845.866,682.461 848.048,682.982 849.954,684.026C851.86,685.069 853.343,686.512 854.403,688.355C855.463,690.198 855.993,692.291 855.993,694.632C855.993,696.974 855.463,699.066 854.403,700.91C853.343,702.753 851.86,704.196 849.954,705.239C848.048,706.283 845.866,706.804 843.408,706.804L834.037,706.804L834.037,682.461ZM843.272,705.204C845.46,705.204 847.389,704.758 849.058,703.866C850.727,702.973 852.012,701.727 852.914,700.127C853.816,698.527 854.268,696.696 854.268,694.632C854.268,692.569 853.816,690.737 852.914,689.138C852.012,687.538 850.727,686.292 849.058,685.399C847.389,684.507 845.46,684.06 843.272,684.06L835.762,684.06L835.762,705.204L843.272,705.204Z" style="fill:white;fill-rule:nonzero;"/>
                <path d="M894.324,706.804L888.674,698.666C887.839,698.782 887.072,698.84 886.373,698.84L879.607,698.84L879.607,706.804L877.882,706.804L877.882,682.461L886.373,682.461C889.35,682.461 891.685,683.185 893.376,684.634C895.068,686.083 895.914,688.094 895.914,690.668C895.914,692.592 895.434,694.209 894.476,695.519C893.517,696.829 892.147,697.751 890.365,698.284L896.286,706.804L894.324,706.804ZM886.373,697.275C888.899,697.275 890.828,696.702 892.158,695.554C893.489,694.406 894.154,692.778 894.154,690.668C894.154,688.558 893.489,686.929 892.158,685.782C890.828,684.634 888.899,684.06 886.373,684.06L879.607,684.06L879.607,697.275L886.373,697.275Z" style="fill:white;fill-rule:nonzero;"/>
                <path d="M928.189,706.978C925.866,706.978 923.768,706.439 921.896,705.361C920.024,704.283 918.552,702.805 917.481,700.927C916.41,699.049 915.874,696.951 915.874,694.632C915.874,692.314 916.41,690.216 917.481,688.338C918.552,686.46 920.024,684.982 921.896,683.904C923.768,682.826 925.866,682.287 928.189,682.287C930.512,682.287 932.609,682.82 934.481,683.886C936.353,684.953 937.825,686.425 938.896,688.303C939.967,690.181 940.503,692.291 940.503,694.632C940.503,696.974 939.967,699.084 938.896,700.962C937.825,702.84 936.353,704.312 934.481,705.378C932.609,706.445 930.512,706.978 928.189,706.978ZM928.189,705.344C930.173,705.344 931.966,704.88 933.568,703.953C935.169,703.025 936.432,701.744 937.357,700.11C938.282,698.475 938.744,696.649 938.744,694.632C938.744,692.615 938.282,690.79 937.357,689.155C936.432,687.521 935.169,686.24 933.568,685.312C931.966,684.385 930.173,683.921 928.189,683.921C926.204,683.921 924.405,684.385 922.793,685.312C921.18,686.24 919.911,687.521 918.987,689.155C918.062,690.79 917.599,692.615 917.599,694.632C917.599,696.649 918.062,698.475 918.987,700.11C919.911,701.744 921.18,703.025 922.793,703.953C924.405,704.88 926.204,705.344 928.189,705.344Z" style="fill:white;fill-rule:nonzero;"/>
                <path d="M968.617,706.978C966.88,706.978 965.228,706.671 963.661,706.057C962.093,705.442 960.869,704.648 959.99,703.674L960.768,702.353C961.602,703.257 962.725,703.993 964.134,704.561C965.544,705.129 967.027,705.413 968.583,705.413C970.838,705.413 972.541,704.973 973.691,704.092C974.842,703.211 975.417,702.063 975.417,700.649C975.417,699.559 975.112,698.69 974.503,698.041C973.894,697.391 973.139,696.893 972.237,696.545C971.335,696.197 970.117,695.838 968.583,695.467C966.846,695.027 965.454,694.598 964.405,694.18C963.356,693.763 962.465,693.12 961.732,692.25C960.999,691.381 960.633,690.216 960.633,688.755C960.633,687.573 960.937,686.489 961.546,685.504C962.155,684.518 963.085,683.736 964.337,683.156C965.589,682.577 967.151,682.287 969.023,682.287C970.331,682.287 971.617,682.484 972.88,682.878C974.143,683.272 975.236,683.805 976.161,684.478L975.518,685.903C974.571,685.231 973.528,684.721 972.389,684.373C971.25,684.026 970.128,683.852 969.023,683.852C966.835,683.852 965.177,684.304 964.05,685.208C962.922,686.112 962.358,687.283 962.358,688.72C962.358,689.81 962.663,690.679 963.271,691.329C963.88,691.978 964.636,692.476 965.538,692.824C966.44,693.172 967.67,693.543 969.226,693.937C970.962,694.377 972.35,694.806 973.387,695.224C974.424,695.641 975.31,696.273 976.043,697.119C976.776,697.965 977.142,699.107 977.142,700.544C977.142,701.727 976.832,702.805 976.212,703.779C975.592,704.752 974.639,705.529 973.353,706.109C972.068,706.688 970.489,706.978 968.617,706.978Z" style="fill:white;fill-rule:nonzero;"/>
                <path d="M1015.24,705.204L1015.24,706.804L998.896,706.804L998.896,682.461L1014.73,682.461L1014.73,684.06L1000.62,684.06L1000.62,693.659L1013.24,693.659L1013.24,695.224L1000.62,695.224L1000.62,705.204L1015.24,705.204Z" style="fill:white;fill-rule:nonzero;"/>
                <path d="M1053.77,705.204L1053.77,706.804L1037.43,706.804L1037.43,682.461L1053.26,682.461L1053.26,684.06L1039.15,684.06L1039.15,693.659L1051.77,693.659L1051.77,695.224L1039.15,695.224L1039.15,705.204L1053.77,705.204Z" style="fill:white;fill-rule:nonzero;"/>
                <path d="M1075.96,682.461L1085.33,682.461C1087.79,682.461 1089.97,682.982 1091.88,684.026C1093.79,685.069 1095.27,686.512 1096.33,688.355C1097.39,690.198 1097.92,692.291 1097.92,694.632C1097.92,696.974 1097.39,699.066 1096.33,700.91C1095.27,702.753 1093.79,704.196 1091.88,705.239C1089.97,706.283 1087.79,706.804 1085.33,706.804L1075.96,706.804L1075.96,682.461ZM1085.2,705.204C1087.39,705.204 1089.32,704.758 1090.98,703.866C1092.65,702.973 1093.94,701.727 1094.84,700.127C1095.74,698.527 1096.19,696.696 1096.19,694.632C1096.19,692.569 1095.74,690.737 1094.84,689.138C1093.94,687.538 1092.65,686.292 1090.98,685.399C1089.32,684.507 1087.39,684.06 1085.2,684.06L1077.69,684.06L1077.69,705.204L1085.2,705.204Z" style="fill:white;fill-rule:nonzero;"/>
                <rect x="1119.81" y="682.461" width="1.725" height="24.344" style="fill:white;"/>
                <path d="M1164.97,682.461L1164.97,706.804L1163.55,706.804L1147.41,685.66L1147.41,706.804L1145.69,706.804L1145.69,682.461L1147.14,682.461L1163.25,703.605L1163.25,682.461L1164.97,682.461Z" style="fill:white;fill-rule:nonzero;"/>
                <path d="M1206.04,694.737L1207.7,694.737L1207.7,703.848C1206.66,704.868 1205.41,705.645 1203.93,706.178C1202.45,706.711 1200.89,706.978 1199.24,706.978C1196.9,706.978 1194.78,706.445 1192.9,705.378C1191.02,704.312 1189.54,702.84 1188.47,700.962C1187.4,699.084 1186.86,696.974 1186.86,694.632C1186.86,692.291 1187.4,690.181 1188.47,688.303C1189.54,686.425 1191.02,684.953 1192.9,683.886C1194.78,682.82 1196.91,682.287 1199.28,682.287C1201.01,682.287 1202.61,682.571 1204.07,683.139C1205.52,683.707 1206.77,684.536 1207.8,685.625L1206.72,686.808C1205.73,685.788 1204.62,685.051 1203.39,684.599C1202.16,684.147 1200.8,683.921 1199.31,683.921C1197.28,683.921 1195.45,684.385 1193.81,685.312C1192.18,686.24 1190.9,687.521 1189.97,689.155C1189.05,690.79 1188.59,692.615 1188.59,694.632C1188.59,696.626 1189.06,698.44 1189.99,700.075C1190.93,701.709 1192.21,702.996 1193.83,703.935C1195.45,704.874 1197.28,705.344 1199.31,705.344C1202.02,705.344 1204.26,704.602 1206.04,703.118L1206.04,694.737Z" style="fill:white;fill-rule:nonzero;"/>
            </g>
        </g>
    </g>
    <defs>
        <linearGradient id="_Linear1" x1="0" y1="0" x2="1" y2="0" gradientUnits="userSpaceOnUse" gradientTransform="matrix(4.25799e-14,695.383,-695.383,4.25799e-14,1071.6,449.617)"><stop offset="0" style="stop-color:rgb(151,187,76);stop-opacity:1"/><stop offset="1" style="stop-color:rgb(33,131,62);stop-opacity:1"/></linearGradient>
    </defs>
</svg>
