<svg width="164" height="170" viewBox="0 0 164 170" xmlns="http://www.w3.org/2000/svg" xmlns:xlink="http://www.w3.org/1999/xlink">
    <defs>
        <path id="ztaz3sq98a" d="M0 0h48.41v30.846H0z"/>
        <path id="bf9i1omxsc" d="M0 0h48.639v31.6H0z"/>
        <path id="y6el0p312e" d="M0 0h24.951v36.595H0z"/>
    </defs>
    <g fill="none" fill-rule="evenodd">
        <path d="m65.157 93.98-3.68 30.308a3.161 3.161 0 1 1-6.276-.763l3.68-30.307a3.16 3.16 0 1 1 6.276.762M76.81 112.05l1.581-6.623a.843.843 0 0 1 1.134-.587l12.944 5.186c.819.328.648 1.534-.23 1.621l-14.527 1.437a.843.843 0 0 1-.903-1.035m32.788 17.659-21.943-9.67c-.793-.35-.606-1.525.257-1.61l21.245-2.101c3.13-.22 3.913-4.84.967-6.033-.024-.043-32.497-13.008-32.553-13.047-1.563-.656-3.505.172-4.11 1.759-.281.494-7.116 29.973-7.319 30.49-.995 3.948 5.225 5.495 6.15 1.467l2.096-8.776a.843.843 0 0 1 1.16-.575l31.5 13.882a3.161 3.161 0 0 0 2.55-5.786" fill="#FFF"/>
        <path d="M117.728 129.867c1.688.27 3.348-.91 3.605-2.645l2.821-18.358a.843.843 0 0 1 1.12-.665l18.953 6.858c.355.128.718.19 1.075.19 3.395.112 4.381-5.052 1.076-6.135L101.86 93.005c-3.822-1.446-6.038 4.602-2.15 5.945l17.89 6.473a.842.842 0 0 1 .544.92l-3.06 19.919a3.161 3.161 0 0 0 2.643 3.605M3.778 84.48c.697 1.616 2.598 2.327 4.16 1.636C36.567 73.65 56.622 54.236 63.67 46.764a.842.842 0 0 1 1.162-.06c23.147 19.933 13.002 20.355 34.54 11.34a.844.844 0 0 1 1.078.4c8.248 16.367 19.255 27.996 45.034 35.525 1.645.435 3.422-.57 3.85-2.275a3.161 3.161 0 0 0-2.275-3.849c-14.28-3.67-25.702-10.688-33.947-20.86-15.183-20.099-1.835-20.153-27.306-10.054a.847.847 0 0 1-.887-.165L66.166 39.36c-.908-.85-2.314-1.084-3.444-.566a.838.838 0 0 0-.153.09C59.933 40.847 40.591 64.68 5.412 80.32a3.16 3.16 0 0 0-1.634 4.16" fill="#FFF"/>
        <path d="M64.342 80.057c-10.216-.184-10.215-15.366 0-15.548 10.216.184 10.214 15.366 0 15.548m-14.096-7.773c.332 18.523 27.862 18.52 28.191 0-.332-18.526-27.862-18.522-28.19 0" fill="#FFC610"/>
        <path d="m33.624 110.96-18.734 5.146a.843.843 0 0 1-1.066-.776l-.474-10.704a.843.843 0 0 1 1.076-.848l19.209 5.56c.817.236.81 1.397-.011 1.622m15.459-3.73c0-.03-38.052-10.997-38.07-11.02-2.02-.778-4.386.948-4.226 3.121l.944 21.292c.049 1.473 1.23 2.796 2.697 2.984a3.17 3.17 0 0 0 1.298-.075l37.262-10.236c1.392-.367 2.403-1.747 2.319-3.186-.044-1.305-.971-2.51-2.224-2.88" fill="#FFF"/>
        <g transform="translate(0 127.101)">
            <mask id="uvjhvoa0cb" fill="#fff">
                <use xlink:href="#ztaz3sq98a"/>
            </mask>
            <path d="M9.088 20.495a.842.842 0 0 1 .776-.99l26.47-1.729a3.161 3.161 0 0 0-.411-6.309L8.55 13.256a.843.843 0 0 1-.883-.687l-.563-3.007a.843.843 0 0 1 .78-.996l37.64-2.244c4.075-.178 3.726-6.629-.377-6.31-.71.096-41.996 2.413-42.662 2.586C.856 2.918-.273 4.64.057 6.262L4.17 28.264c.312 1.726 2.013 2.852 3.688 2.526 4.304-.708 1.82-7.025 1.23-10.295" fill="#FFF" mask="url(#uvjhvoa0cb)"/>
        </g>
        <path d="m56.944 153.274-8.982-1.471a.843.843 0 0 1-.46-1.428l6.133-6.137a.843.843 0 0 1 1.386.3l2.848 7.608a.843.843 0 0 1-.925 1.128m11.8 9.886-9.986-26.667c-.658-1.897-3.185-2.679-4.791-1.465-.554.352-22.527 22.548-23.016 22.964-2.928 2.845 1.607 7.422 4.473 4.468l5.11-5.113a.84.84 0 0 1 .732-.235l19.223 3.149a.834.834 0 0 1 .64.502c.916 2.25 1.696 6.945 4.656 6.668 2.152.036 3.761-2.257 2.96-4.27" fill="#FFF"/>
        <g transform="translate(69.62 138.4)">
            <mask id="506e3pap9d" fill="#fff">
                <use xlink:href="#bf9i1omxsc"/>
            </mask>
            <path d="m18.696 9.267-9.474 3.63a.843.843 0 0 1-1.13-.63l-.846-4.51a.843.843 0 0 1 .9-.995l10.32.877c.892.077 1.066 1.307.23 1.628m27.797 16.158L20.21 17.064c-.759-.242-.79-1.305-.046-1.59l17.097-6.552a3.177 3.177 0 0 0 1.988-2.454c.3-1.656-.926-3.368-2.593-3.613C36.38 2.788 3.726.06 3.437.017 1.425-.203-.36 1.767.062 3.749l4.535 24.19c.314 1.726 2.015 2.85 3.69 2.524 3.89-.678 2.21-5.652 1.536-8.777a.841.841 0 0 1 1.074-.98c6.376 1.987 33.748 11.014 34.635 10.893 3.476.113 4.363-5.2.96-6.174" fill="#FFF" mask="url(#506e3pap9d)"/>
        </g>
        <path d="M162.46 150.888c-24.89-25.977-21.124-34.47-31.549-7.008a.843.843 0 0 1-1.427.255c-2.214-2.58-7.56-8.953-7.873-8.81-1.66-.975-3.996-.049-4.532 1.8-.122.305-3.884 16.114-3.977 16.413-1.016 3.95 5.219 5.507 6.145 1.484l2.091-8.656a.842.842 0 0 1 1.46-.348c2.177 2.567 6.72 8.147 7.54 8.122 1.545.603 3.42-.246 4.013-1.79l6.067-15.111a.843.843 0 0 1 1.41-.249c3.755 4.182 16.924 20.47 18.265 19.153 2.617.086 4.198-3.321 2.367-5.255" fill="#FFF"/>
        <path d="M92.055 40.054c-.46 3.927 3.108 5.312 5.186 3.658l46.34-36.805a.825.825 0 0 0 .311-.536c.5-3.91-3.071-5.345-5.173-3.676L92.367 39.51a.826.826 0 0 0-.312.544M114.291 50.924a3.164 3.164 0 0 0 4.22 1.476l28.807-13.875a3.16 3.16 0 1 0-2.743-5.696l-28.808 13.875a3.161 3.161 0 0 0-1.476 4.22M146.694 61.862l-18.08 3.363a3.161 3.161 0 0 0-2.53 3.686c.312 1.727 2.011 2.854 3.686 2.53l18.08-3.364c4.038-.689 2.868-7.03-1.156-6.215M66.95 29.593a.826.826 0 0 0 .227-.577V2.643a.826.826 0 0 0-.227-.576c-2.748-2.824-6.096-.92-6.096 1.764v23.997c0 2.685 3.348 4.588 6.096 1.765M34.044 44.92c2.672 3.103 7.5-1.155 4.733-4.19L7.261 5.13c-1.78-2.01-5.55-1.214-5.733 2.72a.827.827 0 0 0 .213.582L34.044 44.92zM3.672 50.406l17.964 7.533a3.16 3.16 0 1 0 2.445-5.83L6.117 44.576c-3.753-1.638-6.255 4.297-2.445 5.83" fill="#FFC610"/>
        <g transform="translate(74.735)">
            <mask id="oj84c27t8f" fill="#fff">
                <use xlink:href="#y6el0p312e"/>
            </mask>
            <path d="M1.523 36.138a3.163 3.163 0 0 0 4.341-1.065L24.826 3.784a.824.824 0 0 0 .106-.61c-.886-3.839-4.736-3.948-6.128-1.651L.458 31.797a3.161 3.161 0 0 0 1.065 4.34" fill="#FFC610" mask="url(#oj84c27t8f)"/>
        </g>
        <path d="M46.604 33.757c1.677 3.757 7.507 1.06 5.746-2.637L39.7 3.55c-1.652-3.743-7.515-1.073-5.746 2.637l12.65 27.57" fill="#FFC610"/>
    </g>
</svg>
