<svg width="124" height="60" viewBox="0 0 124 60" xmlns="http://www.w3.org/2000/svg" xmlns:xlink="http://www.w3.org/1999/xlink">
    <defs>
        <path id="3d46f02oca" d="M0 0h123.113v60H0z"/>
    </defs>
    <g fill="none" fill-rule="evenodd">
        <mask id="8mf2r2s0ib" fill="#fff">
            <use xlink:href="#3d46f02oca"/>
        </mask>
        <path d="M122.516 45.587c-18.77-19.59-15.93-25.994-23.792-5.285a.636.636 0 0 1-1.076.192c-1.67-1.945-5.702-6.751-5.937-6.643-1.252-.736-3.014-.038-3.418 1.357-.092.23-2.929 12.152-2.999 12.377-.766 2.98 3.935 4.153 4.634 1.12l1.577-6.529a.635.635 0 0 1 1.102-.262c1.64 1.936 5.067 6.144 5.685 6.125 1.165.455 2.58-.185 3.026-1.35l4.576-11.395a.636.636 0 0 1 1.063-.188c2.831 3.153 12.763 15.437 13.774 14.444 1.974.065 3.167-2.505 1.785-3.963m-64.55-3.568.639 3.4c.073.39.481.619.852.477l7.145-2.739c.63-.242.5-1.17-.174-1.227l-7.782-.662a.636.636 0 0 0-.68.75m28.874 17.98c-.669.092-21.31-6.715-26.119-8.214a.635.635 0 0 0-.81.74c.509 2.355 1.776 6.107-1.158 6.618a2.387 2.387 0 0 1-2.783-1.904l-3.42-18.242c-.32-1.494 1.028-2.98 2.544-2.814.218.031 24.844 2.09 25.053 2.14 1.257.185 2.181 1.476 1.955 2.725a2.395 2.395 0 0 1-1.499 1.85L67.71 47.838c-.561.215-.538 1.017.035 1.2l19.819 6.305c2.567.734 1.897 4.74-.724 4.656M36.17 46.277l6.774 1.11a.636.636 0 0 0 .697-.851l-2.148-5.738a.636.636 0 0 0-1.045-.226L35.823 45.2a.636.636 0 0 0 .346 1.077m15.674 8.565c.604 1.518-.61 3.248-2.232 3.22-2.233.21-2.82-3.332-3.512-5.028a.629.629 0 0 0-.483-.379L31.12 50.281a.634.634 0 0 0-.552.177l-3.854 3.856c-2.16 2.227-5.581-1.224-3.373-3.37.369-.313 16.94-17.052 17.357-17.317 1.211-.916 3.117-.326 3.614 1.104l7.53 20.11M6.854 43.105a.636.636 0 0 1 .586-.746L27.4 41.054a2.384 2.384 0 0 0-.31-4.758l-20.642 1.35a.636.636 0 0 1-.667-.518L5.36 34.86a.636.636 0 0 1 .587-.752l28.385-1.692c3.074-.134 2.811-4.999-.284-4.759-.535.074-31.67 1.82-32.172 1.95-1.23.242-2.08 1.54-1.832 2.764l3.1 16.592a2.388 2.388 0 0 0 2.782 1.905c3.246-.533 1.373-5.298.928-7.764M10.068 10.7l.357 8.073c.018.408.41.693.804.585l14.128-3.88c.619-.17.625-1.046.008-1.225L10.88 10.06a.636.636 0 0 0-.811.639m26.876 6.539L8.843 24.957a2.388 2.388 0 0 1-.979.057c-1.107-.142-1.997-1.14-2.034-2.25L5.118 6.705c-.12-1.639 1.663-2.94 3.187-2.354.014.018 28.71 8.29 28.71 8.312.945.278 1.644 1.187 1.677 2.171.063 1.085-.7 2.126-1.748 2.403m51.839 12.496a2.388 2.388 0 0 0 2.718-1.994l2.128-13.845a.636.636 0 0 1 .844-.5l14.293 5.17c.268.098.542.143.811.143 2.56.085 3.304-3.81.811-4.626L76.817 1.935c-2.882-1.09-4.554 3.471-1.622 4.484L88.686 11.3a.634.634 0 0 1 .411.694L86.79 27.016a2.384 2.384 0 0 0 1.994 2.718m-29.665-18.43-1.194 4.993a.636.636 0 0 0 .681.78l10.955-1.083c.662-.065.792-.975.174-1.223l-9.762-3.91a.636.636 0 0 0-.854.442m-9.239 18.15c.153-.388 5.307-22.62 5.52-22.992.456-1.197 1.92-1.821 3.1-1.326.041.03 24.53 9.806 24.548 9.838 2.222.9 1.63 4.385-.728 4.55l-16.023 1.585c-.65.064-.791.95-.193 1.214l16.548 7.292a2.384 2.384 0 0 1-1.923 4.363L56.972 23.51a.636.636 0 0 0-.874.434l-1.581 6.618c-.698 3.037-5.388 1.872-4.638-1.107M49.137 2.67 46.36 25.526a2.384 2.384 0 1 1-4.733-.575l2.776-22.855a2.385 2.385 0 0 1 4.733.575" fill="#FFC610" mask="url(#8mf2r2s0ib)"/>
    </g>
</svg>
